<mxfile host="app.diagrams.net" agent="Mozilla/5.0 (Windows NT 10.0; Win64; x64) AppleWebKit/537.36 (KHTML, like Gecko) Chrome/135.0.0.0 Safari/537.36 Edg/135.0.0.0" version="26.2.14">
  <diagram name="Page-1" id="kQ9XglQ8jCVxOoXQEVss">
    <mxGraphModel dx="864" dy="486" grid="1" gridSize="10" guides="1" tooltips="1" connect="1" arrows="1" fold="1" page="1" pageScale="1" pageWidth="827" pageHeight="1169" math="0" shadow="0">
      <root>
        <mxCell id="0" />
        <mxCell id="1" parent="0" />
        <mxCell id="4M08uejk7UB776GurStj-1" value="Argent PHP" style="text;html=1;align=center;verticalAlign=middle;whiteSpace=wrap;rounded=0;" vertex="1" parent="1">
          <mxGeometry x="130" y="130" width="60" height="30" as="geometry" />
        </mxCell>
        <mxCell id="4M08uejk7UB776GurStj-2" value="Argent DOLLAR&lt;div&gt;(Philippines)&lt;/div&gt;" style="text;html=1;align=center;verticalAlign=middle;whiteSpace=wrap;rounded=0;" vertex="1" parent="1">
          <mxGeometry x="130" y="274" width="60" height="30" as="geometry" />
        </mxCell>
        <mxCell id="4M08uejk7UB776GurStj-3" value="" style="endArrow=classic;html=1;rounded=0;exitX=0.5;exitY=1;exitDx=0;exitDy=0;entryX=0.5;entryY=0;entryDx=0;entryDy=0;" edge="1" parent="1" source="4M08uejk7UB776GurStj-1" target="4M08uejk7UB776GurStj-2">
          <mxGeometry width="50" height="50" relative="1" as="geometry">
            <mxPoint x="390" y="280" as="sourcePoint" />
            <mxPoint x="440" y="230" as="targetPoint" />
          </mxGeometry>
        </mxCell>
        <mxCell id="4M08uejk7UB776GurStj-4" value="Argent DOLLAR&lt;div&gt;(Camer&lt;span style=&quot;background-color: transparent; color: light-dark(rgb(0, 0, 0), rgb(255, 255, 255));&quot;&gt;oun)&lt;/span&gt;&lt;/div&gt;" style="text;html=1;align=center;verticalAlign=middle;whiteSpace=wrap;rounded=0;" vertex="1" parent="1">
          <mxGeometry x="384" y="274" width="60" height="30" as="geometry" />
        </mxCell>
        <mxCell id="4M08uejk7UB776GurStj-5" value="&lt;div&gt;&lt;span style=&quot;background-color: transparent; color: light-dark(rgb(0, 0, 0), rgb(255, 255, 255));&quot;&gt;Visa, Master&lt;/span&gt;&lt;/div&gt;" style="text;html=1;align=center;verticalAlign=middle;whiteSpace=wrap;rounded=0;" vertex="1" parent="1">
          <mxGeometry x="80" y="210" width="60" height="30" as="geometry" />
        </mxCell>
        <mxCell id="4M08uejk7UB776GurStj-6" value="OM, MOMO" style="text;html=1;align=center;verticalAlign=middle;whiteSpace=wrap;rounded=0;" vertex="1" parent="1">
          <mxGeometry x="610" y="270" width="60" height="30" as="geometry" />
        </mxCell>
        <mxCell id="4M08uejk7UB776GurStj-7" value="" style="endArrow=classic;html=1;rounded=0;exitX=1;exitY=0.25;exitDx=0;exitDy=0;entryX=0;entryY=0.25;entryDx=0;entryDy=0;" edge="1" parent="1" source="4M08uejk7UB776GurStj-2" target="4M08uejk7UB776GurStj-4">
          <mxGeometry width="50" height="50" relative="1" as="geometry">
            <mxPoint x="360" y="250" as="sourcePoint" />
            <mxPoint x="440" y="230" as="targetPoint" />
          </mxGeometry>
        </mxCell>
        <mxCell id="4M08uejk7UB776GurStj-8" value="" style="endArrow=classic;html=1;rounded=0;exitX=1;exitY=0.5;exitDx=0;exitDy=0;" edge="1" parent="1" source="4M08uejk7UB776GurStj-4" target="4M08uejk7UB776GurStj-6">
          <mxGeometry width="50" height="50" relative="1" as="geometry">
            <mxPoint x="470" y="304" as="sourcePoint" />
            <mxPoint x="664" y="304" as="targetPoint" />
          </mxGeometry>
        </mxCell>
        <mxCell id="4M08uejk7UB776GurStj-9" value="Afriland First ban&lt;span style=&quot;background-color: transparent; color: light-dark(rgb(0, 0, 0), rgb(255, 255, 255));&quot;&gt;k&lt;/span&gt;" style="text;html=1;align=center;verticalAlign=middle;whiteSpace=wrap;rounded=0;" vertex="1" parent="1">
          <mxGeometry x="360" y="390" width="60" height="30" as="geometry" />
        </mxCell>
        <mxCell id="4M08uejk7UB776GurStj-11" value="" style="curved=1;endArrow=classic;html=1;rounded=0;" edge="1" parent="1">
          <mxGeometry width="50" height="50" relative="1" as="geometry">
            <mxPoint x="180" y="310" as="sourcePoint" />
            <mxPoint x="630" y="310" as="targetPoint" />
            <Array as="points">
              <mxPoint x="310" y="390" />
              <mxPoint x="460" y="360" />
              <mxPoint x="380" y="360" />
            </Array>
          </mxGeometry>
        </mxCell>
        <mxCell id="4M08uejk7UB776GurStj-13" value="GCASH" style="text;html=1;align=center;verticalAlign=middle;whiteSpace=wrap;rounded=0;" vertex="1" parent="1">
          <mxGeometry x="130" y="70" width="60" height="30" as="geometry" />
        </mxCell>
        <mxCell id="4M08uejk7UB776GurStj-15" value="&lt;h1 style=&quot;margin-top: 0px;&quot;&gt;ProblÃ¨me&amp;nbsp;&lt;/h1&gt;&lt;p&gt;-&amp;nbsp;&lt;/p&gt;" style="text;html=1;whiteSpace=wrap;overflow=hidden;rounded=0;" vertex="1" parent="1">
          <mxGeometry x="610" y="30" width="180" height="120" as="geometry" />
        </mxCell>
        <mxCell id="4M08uejk7UB776GurStj-27" value="Argent PHP" style="text;html=1;align=center;verticalAlign=middle;whiteSpace=wrap;rounded=0;" vertex="1" parent="1">
          <mxGeometry x="145" y="510" width="60" height="30" as="geometry" />
        </mxCell>
        <mxCell id="4M08uejk7UB776GurStj-29" value="" style="endArrow=classic;html=1;rounded=0;exitX=0.5;exitY=1;exitDx=0;exitDy=0;entryX=0.5;entryY=0;entryDx=0;entryDy=0;" edge="1" parent="1" source="4M08uejk7UB776GurStj-27">
          <mxGeometry width="50" height="50" relative="1" as="geometry">
            <mxPoint x="405" y="660" as="sourcePoint" />
            <mxPoint x="175" y="654" as="targetPoint" />
          </mxGeometry>
        </mxCell>
        <mxCell id="4M08uejk7UB776GurStj-30" value="Argent DOLLAR&lt;div&gt;(Camer&lt;span style=&quot;background-color: transparent; color: light-dark(rgb(0, 0, 0), rgb(255, 255, 255));&quot;&gt;oun)&lt;/span&gt;&lt;/div&gt;" style="text;html=1;align=center;verticalAlign=middle;whiteSpace=wrap;rounded=0;" vertex="1" parent="1">
          <mxGeometry x="145" y="654" width="60" height="30" as="geometry" />
        </mxCell>
        <mxCell id="4M08uejk7UB776GurStj-31" value="&lt;div&gt;&lt;span style=&quot;background-color: transparent; color: light-dark(rgb(0, 0, 0), rgb(255, 255, 255));&quot;&gt;Visa, Master&lt;/span&gt;&lt;/div&gt;" style="text;html=1;align=center;verticalAlign=middle;whiteSpace=wrap;rounded=0;" vertex="1" parent="1">
          <mxGeometry x="95" y="590" width="60" height="30" as="geometry" />
        </mxCell>
        <mxCell id="4M08uejk7UB776GurStj-32" value="OM, MOMO" style="text;html=1;align=center;verticalAlign=middle;whiteSpace=wrap;rounded=0;" vertex="1" parent="1">
          <mxGeometry x="625" y="650" width="60" height="30" as="geometry" />
        </mxCell>
        <mxCell id="4M08uejk7UB776GurStj-34" value="" style="endArrow=classic;html=1;rounded=0;exitX=1;exitY=0.5;exitDx=0;exitDy=0;" edge="1" parent="1" source="4M08uejk7UB776GurStj-30" target="4M08uejk7UB776GurStj-32">
          <mxGeometry width="50" height="50" relative="1" as="geometry">
            <mxPoint x="485" y="684" as="sourcePoint" />
            <mxPoint x="679" y="684" as="targetPoint" />
          </mxGeometry>
        </mxCell>
        <mxCell id="4M08uejk7UB776GurStj-35" value="Afriland First ban&lt;span style=&quot;background-color: transparent; color: light-dark(rgb(0, 0, 0), rgb(255, 255, 255));&quot;&gt;k&lt;/span&gt;" style="text;html=1;align=center;verticalAlign=middle;whiteSpace=wrap;rounded=0;" vertex="1" parent="1">
          <mxGeometry x="375" y="770" width="60" height="30" as="geometry" />
        </mxCell>
        <mxCell id="4M08uejk7UB776GurStj-36" value="" style="curved=1;endArrow=classic;html=1;rounded=0;" edge="1" parent="1">
          <mxGeometry width="50" height="50" relative="1" as="geometry">
            <mxPoint x="195" y="690" as="sourcePoint" />
            <mxPoint x="645" y="690" as="targetPoint" />
            <Array as="points">
              <mxPoint x="325" y="770" />
              <mxPoint x="475" y="740" />
              <mxPoint x="395" y="740" />
            </Array>
          </mxGeometry>
        </mxCell>
        <mxCell id="4M08uejk7UB776GurStj-37" value="GCASH" style="text;html=1;align=center;verticalAlign=middle;whiteSpace=wrap;rounded=0;" vertex="1" parent="1">
          <mxGeometry x="145" y="450" width="60" height="30" as="geometry" />
        </mxCell>
      </root>
    </mxGraphModel>
  </diagram>
</mxfile>
